ply
format ascii 1.0
comment Created in Blender version 4.0.2
element vertex 564
property float x
property float y
property float z
property float s
property float t
element face 1120
property list uchar uint vertex_indices
end_header
7.0162826 -8.716565 47.616848 0 0
7.391908 -7.7911277 46.997364 0 0
6.836667 -8.211908 46.74785 0 0
9.397333 -9.665821 48.98822 0 0
7.5659895 -9.170082 48.347767 0 0
11.328515 -7.5912275 45.071957 0 0
7.5661645 -7.407955 46.29754 0 0
7.054489 -7.7329416 45.873066 0 0
7.5355997 -8.194853 47.692566 0 0
6.9373407 -7.318286 47.254124 0 0
7.1522098 -6.845812 46.3912 0 0
6.688942 -6.859576 47.507427 0 0
7.114521 -7.816102 48.111343 0 0
6.8854218 -7.4116163 48.458023 0 0
6.9272156 -6.335638 46.55051 0 0
7.6567793 -8.263472 48.832355 0 0
7.486747 -7.9077168 49.25757 0 0
7.9753656 -8.557667 48.2773 0 0
8.401362 -8.272349 49.784348 0 0
8.481556 -8.592288 49.307392 0 0
8.644257 -8.824334 48.66255 0 0
8.402107 -9.503417 48.82933 0 0
9.440438 -8.954258 48.789665 0 0
10.400159 -9.632569 48.800255 0 0
10.242701 -8.927657 48.63929 0 0
9.463295 -8.752491 49.46413 0 0
9.490036 -8.450002 49.958157 0 0
10.587024 -8.413629 49.75254 0 0
10.452531 -8.71969 49.27871 0 0
11.298656 -8.49888 48.77936 0 0
11.525319 -8.168768 49.198803 0 0
11.872866 -8.123678 48.042103 0 0
12.162071 -7.752696 48.38124 0 0
10.9289055 -8.748582 48.23432 0 0
11.257918 -9.408727 48.294044 0 0
11.394584 -8.444296 47.636414 0 0
12.057837 -8.549401 46.671875 0 0
11.840015 -9.028368 47.546658 0 0
11.425149 -7.6573973 46.241386 0 0
11.56884 -8.061122 46.936584 0 0
12.087735 -7.651204 47.17918 0 0
12.400344 -7.228758 47.42432 0 0
11.910555 -7.153388 46.32196 0 0
12.203865 -6.6767173 46.47373 0 0
11.602544 -6.1806173 45.67418 0 0
11.368296 -6.7060184 45.60095 0 0
10.985382 -7.2945833 45.65665 0 0
10.687923 -5.8159847 45.147404 0 0
10.543519 -6.377202 45.125916 0 0
10.316491 -7.027915 45.2714 0 0
11.8782215 -8.0447445 45.802876 0 0
10.492397 -7.2578926 44.590393 0 0
9.520309 -6.897992 45.144287 0 0
8.494346 -7.1287394 44.61947 0 0
9.497171 -7.0954885 44.4315 0 0
9.56178 -6.2169995 44.969173 0 0
8.572544 -6.2497997 45.154594 0 0
9.599249 -5.6383324 44.97359 0 0
8.502262 -5.674705 45.179207 0 0
7.726419 -6.4706097 45.653942 0 0
7.5639668 -5.919566 45.73295 0 0
8.718048 -6.924593 45.294662 0 0
8.031843 -7.103668 45.69963 0 0
7.636586 -7.3525834 45.12568 0 0
8.539333 -5.1659694 45.466984 0 0
7.601039 -5.4108305 46.020725 0 0
6.9642873 -5.8269024 46.838287 0 0
6.726014 -6.3508406 47.795204 0 0
7.253492 -5.45592 47.17742 0 0
7.038623 -5.928394 48.040348 0 0
6.9224935 -6.9028807 48.7458 0 0
7.2158036 -6.42621 48.897568 0 0
7.758062 -6.87358 49.618576 0 0
7.523819 -7.398981 49.545345 0 0
8.582838 -7.202396 50.093613 0 0
8.438435 -7.763613 50.072124 0 0
9.527108 -7.941266 50.245934 0 0
9.564577 -7.3625984 50.25035 0 0
10.624096 -7.904893 50.04032 0 0
10.553813 -7.3297987 50.064934 0 0
11.399939 -7.108989 49.565582 0 0
11.562391 -7.6600323 49.48658 0 0
11.974148 -6.7337866 48.828327 0 0
12.199142 -7.2439604 48.669018 0 0
12.189017 -6.2613125 47.9654 0 0
12.437416 -6.720022 47.712097 0 0
12.240936 -6.1679816 46.761505 0 0
12.011837 -5.7634964 47.10818 0 0
11.639616 -5.6718817 45.96196 0 0
11.469578 -5.3161263 46.387173 0 0
10.724996 -5.307249 45.43518 0 0
10.644801 -4.9873104 45.912136 0 0
9.636321 -5.1295967 45.261368 0 0
9.663062 -4.8271074 45.755398 0 0
8.673827 -4.8599076 45.940815 0 0
7.8277016 -5.0807176 46.440166 0 0
8.883657 -4.6519413 46.580235 0 0
9.685919 -4.625341 46.429863 0 0
8.197453 -4.8310165 46.985203 0 0
9.708 -4.322321 46.601273 0 0
8.905739 -4.3489213 46.751644 0 0
8.163056 -5.9819956 49.734283 0 0
8.388806 -5.8872643 49.537735 0 0
8.015004 -5.578872 49.04071 0 0
7.7317743 -5.1353035 47.583115 0 0
8.219534 -4.5279965 47.156612 0 0
7.5575175 -5.5184765 48.28294 0 0
7.7538557 -4.832283 47.754524 0 0
7.701209 -5.9222016 48.978138 0 0
7.579599 -5.215456 48.45435 0 0
8.140976 -6.2850156 49.562874 0 0
7.7232904 -5.6191816 49.149548 0 0
8.809866 -6.5516834 49.948124 0 0
9.606049 -6.6816063 50.075237 0 0
8.831947 -6.248663 50.119534 0 0
10.40831 -6.6550055 49.924866 0 0
9.628129 -6.378586 50.246647 0 0
11.094515 -6.47593 49.519897 0 0
10.430391 -6.351985 50.096275 0 0
11.560193 -6.171644 48.921986 0 0
11.116596 -6.1729107 49.691307 0 0
11.734449 -5.7884707 48.22216 0 0
11.582274 -5.8686237 49.093395 0 0
10.947323 -4.813643 47.310184 0 0
11.321125 -5.122035 47.80721 0 0
11.61284 -5.081725 47.69837 0 0
11.590758 -5.3847456 47.526962 0 0
11.756531 -5.4854507 48.39357 0 0
11.147898 -4.086091 48.506588 0 0
11.443263 -5.4652014 48.39813 0 0
11.251475 -4.377101 49.007698 0 0
11.295145 -5.7908983 48.99298 0 0
11.244657 -1.9286747 50.38864 0 0
11.134433 -2.171044 50.831306 0 0
11.081472 -2.9739954 50.379837 0 0
11.100893 -2.474019 49.49347 0 0
10.821476 -2.243496 49.121944 0 0
10.830914 -3.824571 48.085106 0 0
10.3964815 -2.074062 48.877167 0 0
10.875603 -1.4438138 49.579044 0 0
10.348769 -3.632354 47.807415 0 0
10.378766 -4.586975 46.982723 0 0
9.70201 -4.4765406 46.874676 0 0
9.774871 -3.538704 47.71579 0 0
10.4821005 -4.755264 46.556976 0 0
11.173073 -4.718911 47.113636 0 0
11.150991 -5.0219316 46.942226 0 0
10.504182 -4.452244 46.728386 0 0
9.196589 -3.557878 47.82418 0 0
9.020085 -4.499151 47.00249 0 0
9.890604 -1.991512 48.796402 0 0
9.380864 -2.0084133 48.891945 0 0
9.9488945 -1.1929572 49.254955 0 0
8.944869 -2.1221933 49.14925 0 0
8.701965 -3.6869571 48.116085 0 0
8.436812 -4.651365 47.346718 0 0
8.648988 -2.3155298 49.52915 0 0
8.040984 -4.9100084 47.85494 0 0
8.366299 -3.9062903 48.547066 0 0
7.892866 -5.2357054 48.44979 0 0
8.240694 -4.1824856 49.051506 0 0
8.344272 -4.4734955 49.552616 0 0
8.538268 -2.5589883 49.9738 0 0
8.629568 -2.8155057 50.415512 0 0
8.6026125 -1.7578945 50.42709 0 0
8.908985 -3.046029 50.78704 0 0
8.661256 -4.7350154 49.9741 0 0
9.1434 -4.9272323 50.25179 0 0
9.33398 -3.2154627 51.03182 0 0
8.957363 -6.1139317 49.865196 0 0
9.7172985 -5.020882 50.343414 0 0
9.63412 -6.224366 49.973244 0 0
10.316044 -6.2017555 49.84543 0 0
10.295579 -5.001708 50.235023 0 0
9.898374 -2.4936118 51.560776 0 0
9.394764 -2.4114313 51.48037 0 0
10.349596 -3.2811115 51.01704 0 0
10.785591 -3.1673317 50.759735 0 0
10.899318 -6.0495424 49.501205 0 0
10.790204 -4.872629 49.94312 0 0
11.125866 -4.653296 49.51214 0 0
11.314043 -0.97778296 51.55199 0 0
10.997383 -1.1846979 51.95857 0 0
10.530762 -1.3064685 52.233948 0 0
10.405829 -2.476786 51.46566 0 0
10.039536 0.07370353 49.857346 0 0
11.43254 -0.7172253 51.076107 0 0
9.985225 -1.3245571 52.3362 0 0
11.183206 -1.0796502 52.222633 0 0
11.911425 -0.89497805 51.802357 0 0
11.554873 -0.8367951 51.745434 0 0
10.63554 -1.2225726 52.545845 0 0
11.260096 -0.024500608 52.819504 0 0
11.457035 -0.18697858 53.081364 0 0
11.380146 -1.2421281 52.484493 0 0
10.71243 -0.16742277 53.14271 0 0
10.83248 -1.3850505 52.807705 0 0
11.365412 -1.4443195 52.37012 0 0
9.90247 -1.6175897 52.864887 0 0
10.817746 -1.5872419 52.693333 0 0
9.995241 -1.243803 52.66586 0 0
9.917203 -1.4153984 52.97926 0 0
9.281762 -1.3117049 52.877808 0 0
9.994093 -0.36024857 53.57613 0 0
10.072131 -0.18865323 53.26273 0 0
9.358651 -0.25655532 53.474678 0 0
9.359795 -1.1401093 52.564407 0 0
9.436685 -0.08495951 53.161278 0 0
9.443821 -1.2362094 52.249763 0 0
8.825948 -0.9272785 52.256935 0 0
8.503908 -1.2096641 52.323917 0 0
9.267028 -1.5138962 52.763435 0 0
8.518642 -1.0074728 52.43829 0 0
8.24455 0.3372438 52.568474 0 0
8.16766 -0.71790576 51.971603 0 0
8.595531 0.04767704 53.03516 0 0
8.551849 0.41743875 52.38712 0 0
8.902837 0.12787127 52.8538 0 0
8.47496 -0.6377113 51.79025 0 0
8.689934 -0.808162 51.59017 0 0
8.988974 -1.0548756 51.987793 0 0
8.36028 -0.3154924 51.2354 0 0
7.988991 -0.4595003 51.064102 0 0
8.152926 -0.9200971 51.85723 0 0
8.003725 -0.25730896 51.178474 0 0
8.142804 0.0485065 50.619934 0 0
8.080614 0.79784083 51.775345 0 0
8.43717 0.73965764 51.832268 0 0
8.219694 1.1036565 51.216805 0 0
8.499355 -0.009676456 50.67686 0 0
8.576244 1.0454733 51.273727 0 0
8.710718 -0.2730713 50.641556 0 0
8.59222 -0.5336287 51.11744 0 0
8.871023 0.23317885 50.199657 0 0
8.659349 0.19346547 49.823425 0 0
8.128071 -0.15368485 50.50556 0 0
8.674083 0.39565682 49.937798 0 0
9.221748 0.5385797 49.614586 0 0
8.750973 1.4508069 50.534668 0 0
9.495578 1.4312513 50.473316 0 0
8.947912 1.2883289 50.796528 0 0
9.418689 0.37610173 49.87645 0 0
9.4939995 0.05561471 49.9596 0 0
9.027378 -0.06615615 50.234978 0 0
10.137025 0.5689275 49.44303 0 0
9.441439 -1.2097828 49.35007 0 0
10.452505 -1.2751377 49.33536 0 0
10.580939 -0.014644384 49.943783 0 0
10.058988 0.39733195 49.75643 0 0
10.694434 0.29363847 49.857883 0 0
10.135877 1.452482 50.353302 0 0
10.213915 1.6240771 50.0399 0 0
10.849357 1.5203836 50.14135 0 0
10.772467 0.46523404 49.544483 0 0
10.122292 0.36673617 49.32866 0 0
10.771323 1.348788 50.454754 0 0
11.520852 -0.04118991 49.86963 0 0
10.757733 0.2630427 49.43011 0 0
11.228281 0.08080721 50.16536 0 0
11.535586 0.16100144 49.984 0 0
11.886568 -0.12856531 50.450687 0 0
11.612475 1.2161515 50.58087 0 0
11.6561575 0.84639 51.228912 0 0
11.305171 1.135957 50.762226 0 0
11.579268 -0.20876002 50.632042 0 0
11.035788 -0.1959784 50.205753 0 0
11.334827 -0.4426918 50.60337 0 0
11.693949 -0.5309787 51.186893 0 0
12.03577 -0.79135346 51.129444 0 0
12.050504 -0.5891621 51.243816 0 0
12.127394 0.46598744 51.840687 0 0
11.631763 0.21835494 52.3423 0 0
11.770838 0.5241711 51.78376 0 0
11.89669 -1.0971694 51.687984 0 0
11.153767 -1.6733053 49.948906 0 0
9.207015 0.33638835 49.500214 0 0
8.693502 -2.013264 50.866825 0 0
10.909369 -0.32990098 53.40457 0 0
9.298638 1.5937293 50.211456 0 0
11.963458 0.9265845 51.047554 0 0
11.871835 -0.33075666 50.336315 0 0
11.988314 0.16017175 52.399227 0 0
-9.130273 4.635867 -42.647392 0 0
-8.739183 5.2568836 -43.673985 0 0
-9.42771 5.18791 -43.135372 0 0
-7.891786 4.8298707 -46.417286 0 0
-7.7320256 4.7892284 -44.273518 0 0
-13.051392 4.404382 -46.040848 0 0
-10.182972 4.5437036 -42.356216 0 0
-10.269869 5.1141796 -42.90243 0 0
-9.236363 5.7388506 -42.65386 0 0
-10.274794 5.647937 -42.36663 0 0
-9.1445875 6.285718 -42.370636 0 0
-8.387372 5.8238993 -43.318 0 0
-8.203118 6.38003 -43.107117 0 0
-10.296127 6.184901 -42.052124 0 0
-7.615055 6.453479 -44.14945 0 0
-7.857071 5.890133 -44.257946 0 0
-8.309113 5.310599 -44.43627 0 0
-7.7261915 5.9274697 -45.330593 0 0
-7.46992 6.494882 -45.338936 0 0
-8.202971 5.3408785 -45.306187 0 0
-8.269615 4.722084 -43.320656 0 0
-7.5993514 4.827078 -45.360912 0 0
-8.436919 5.343113 -46.151287 0 0
-8.564812 4.797181 -47.28182 0 0
-8.014664 5.9302244 -46.37265 0 0
-8.97534 5.3169613 -46.842915 0 0
-7.789814 6.497937 -46.4945 0 0
-8.678568 5.897978 -47.22547 0 0
-8.526033 6.462178 -47.44021 0 0
-9.616828 5.83564 -47.759212 0 0
-9.566495 6.3930497 -48.032093 0 0
-10.686606 5.7527003 -47.892628 0 0
-10.752798 6.301076 -48.18004 0 0
-9.736263 5.2664056 -47.275776 0 0
-9.515967 4.7339864 -47.822903 0 0
-10.603846 5.199142 -47.383976 0 0
-11.653145 4.557743 -47.666973 0 0
-10.600445 4.6499066 -47.95815 0 0
-12.134532 5.0564375 -46.612423 0 0
-11.446005 5.125411 -47.151035 0 0
-11.725037 5.661786 -47.6054 0 0
-11.904339 6.2002587 -47.861523 0 0
-12.574028 5.576738 -46.941257 0 0
-12.845807 6.1059465 -47.125042 0 0
-13.433873 6.0324984 -46.082714 0 0
-13.104329 5.510504 -46.001312 0 0
-12.564603 5.0027223 -45.850132 0 0
-13.579006 5.9910946 -44.893223 0 0
-13.2352085 5.473167 -44.928665 0 0
-12.670744 4.9724426 -44.98022 0 0
-12.513803 4.4715266 -46.993706 0 0
-13.184067 4.366533 -44.953453 0 0
-12.436796 4.9702086 -44.13512 0 0
-12.218607 4.3964295 -43.032543 0 0
-12.891632 4.36374 -43.89708 0 0
-12.946736 5.4704123 -43.88661 0 0
-11.8983755 4.99636 -43.443493 0 0
-13.259112 5.98804 -43.73766 0 0
-12.282833 5.502659 -43.033787 0 0
-12.522893 6.023799 -42.79195 0 0
-11.344572 5.5649967 -42.500046 0 0
-11.48243 6.092927 -42.200066 0 0
-11.137451 5.046916 -43.010628 0 0
-11.26745 4.4596243 -42.491463 0 0
-12.573426 6.65042 -42.776302 0 0
-11.532963 6.719549 -42.18442 0 0
-10.346661 6.8115225 -42.036476 0 0
-9.19512 6.91234 -42.354992 0 0
-10.412852 7.3598986 -42.323887 0 0
-9.374422 7.450813 -42.611115 0 0
-8.253652 7.006652 -43.091473 0 0
-8.525431 7.535861 -43.275257 0 0
-7.6655884 7.0801005 -44.133804 0 0
-7.99513 7.6020947 -44.215202 0 0
-7.86425 7.6394315 -45.28785 0 0
-7.5204535 7.121504 -45.32329 0 0
-7.8403473 7.1245584 -46.47885 0 0
-8.152722 7.642186 -46.329906 0 0
-8.576566 7.0887995 -47.424564 0 0
-8.816627 7.6099396 -47.182728 0 0
-9.754887 7.5476017 -47.71647 0 0
-9.617028 7.0196714 -48.01645 0 0
-10.824665 7.464662 -47.84988 0 0
-10.803331 6.927697 -48.16439 0 0
-11.954872 6.8268805 -47.84588 0 0
-11.863095 7.373748 -47.562653 0 0
-12.712088 7.2886996 -46.898514 0 0
-12.89634 6.7325683 -47.109394 0 0
-13.484406 6.6591196 -46.06707 0 0
-13.242388 7.2224655 -45.95857 0 0
-13.6295395 6.617717 -44.87758 0 0
-13.373267 7.185129 -44.885918 0 0
-13.309646 6.6146617 -43.722015 0 0
-13.084795 7.182374 -43.84386 0 0
-12.420891 7.2146206 -42.991043 0 0
-11.482632 7.2769585 -42.457302 0 0
-12.124119 7.795637 -43.3736 0 0
-12.6625395 7.7694855 -44.065228 0 0
-12.692638 8.142723 -44.05591 0 0
-11.363195 7.8461933 -42.940735 0 0
-12.154219 8.168874 -43.36428 0 0
-8.564955 8.483113 -44.357063 0 0
-8.884116 8.460022 -44.4631 0 0
-9.249676 8.414364 -43.815155 0 0
-10.495612 7.9134564 -42.83254 0 0
-11.393294 8.21943 -42.93142 0 0
-9.653454 7.9871874 -43.06548 0 0
-10.525712 8.286694 -42.82322 0 0
-8.964927 8.056161 -43.60409 0 0
-9.683553 8.360424 -43.05616 0 0
-8.534856 8.109877 -44.366383 0 0
-8.995026 8.429398 -43.594772 0 0
-8.428715 8.140156 -45.236294 0 0
-8.662663 8.14239 -46.081394 0 0
-8.458815 8.513392 -45.226974 0 0
-9.201084 8.116239 -46.77302 0 0
-8.692762 8.515627 -46.072075 0 0
-9.9620075 8.065682 -47.205883 0 0
-9.231183 8.489475 -46.763702 0 0
-10.82959 7.998419 -47.314083 0 0
-9.992106 8.438919 -47.196564 0 0
-11.671749 7.9246883 -47.081142 0 0
-10.859689 8.371656 -47.304764 0 0
-12.501286 8.198327 -45.664883 0 0
-12.135725 8.243985 -46.312828 0 0
-12.390375 8.228951 -46.53321 0 0
-12.360276 7.855715 -46.54253 0 0
-11.701848 8.297925 -47.071823 0 0
-11.526455 9.625406 -46.478333 0 0
-12.022752 9.575689 -46.09009 0 0
-10.834641 8.365284 -46.96865 0 0
-11.550477 8.302612 -46.77065 0 0
-11.679388 12.62927 -46.22615 0 0
-11.146695 12.675907 -46.373493 0 0
-11.067559 11.688829 -46.404514 0 0
-12.04012 11.598158 -45.914288 0 0
-12.313376 11.564029 -45.429947 0 0
-12.332753 9.536971 -45.54063 0 0
-12.380816 11.544789 -44.877228 0 0
-12.386939 12.551664 -45.40329 0 0
-12.409261 9.515145 -44.913586 0 0
-12.591505 8.172589 -44.925457 0 0
-12.392649 8.170691 -44.207123 0 0
-12.240627 9.513535 -44.30443 0 0
-12.896488 7.77172 -44.910328 0 0
-12.820446 8.175236 -45.77092 0 0
-12.790347 7.801999 -45.78024 0 0
-12.926587 8.144957 -44.90101 0 0
-11.93499 8.192919 -43.619236 0 0
-11.852527 9.532385 -43.805893 0 0
-12.232171 11.54337 -44.34027 0 0
-11.89007 11.559986 -43.900826 0 0
-11.304045 9.568827 -43.49388 0 0
-11.406599 11.592108 -43.625797 0 0
-11.288204 8.235891 -43.2513 0 0
-10.855358 11.634846 -43.55705 0 0
-10.550759 8.293066 -43.159332 0 0
-10.678681 9.6173115 -43.41589 0 0
-9.834924 8.355737 -43.357334 0 0
-10.071645 9.670457 -43.583797 0 0
-9.575349 9.720173 -43.97204 0 0
-10.32027 11.681692 -43.70505 0 0
-9.882797 11.725516 -44.047276 0 0
-10.402752 12.668802 -43.686115 0 0
-9.609541 11.759645 -44.531616 0 0
-9.265347 9.758892 -44.5215 0 0
-9.18884 9.780718 -45.148544 0 0
-9.542101 11.778885 -45.084335 0 0
-8.793897 8.48576 -45.202526 0 0
-8.992753 8.487659 -45.92086 0 0
-9.357473 9.782329 -45.7577 0 0
-9.450412 8.46543 -46.508747 0 0
-9.745573 9.763478 -46.256237 0 0
-9.776045 12.7669735 -45.593777 0 0
-9.628065 12.76556 -45.059227 0 0
-10.032847 11.763688 -46.060738 0 0
-10.516318 11.731566 -46.335766 0 0
-10.097197 8.422458 -46.876682 0 0
-10.294055 9.727037 -46.56825 0 0
-10.919416 9.678553 -46.646236 0 0
-11.275593 14.177987 -46.4424 0 0
-10.685637 14.223726 -46.36883 0 0
-10.168208 14.258104 -46.074482 0 0
-10.116612 12.750431 -46.031254 0 0
-12.521998 14.022312 -44.23318 0 0
-11.848263 14.127851 -46.284008 0 0
-9.802083 14.2758875 -45.604176 0 0
-10.430372 14.509788 -46.95587 0 0
-11.420168 14.433049 -47.07931 0 0
-11.315401 14.432049 -46.700855 0 0
-10.015668 14.526082 -46.269028 0 0
-10.7277775 15.785385 -46.582047 0 0
-10.62297 14.485732 -46.6145 0 0
-10.535181 15.809441 -46.92342 0 0
-10.120476 15.825735 -46.236576 0 0
-9.823071 14.550137 -46.6104 0 0
-10.410288 14.260744 -46.96209 0 0
-9.188719 14.330929 -45.82756 0 0
-9.802986 14.301093 -46.61662 0 0
-9.585945 14.546953 -45.717026 0 0
-9.208802 14.579972 -45.821342 0 0
-9.022087 14.578189 -45.14686 0 0
-9.313611 15.879625 -45.78889 0 0
-9.690754 15.846606 -45.684578 0 0
-9.126896 15.877842 -45.114407 0 0
-9.399227 14.545171 -45.042538 0 0
-9.504035 15.844824 -45.010086 0 0
-9.642999 14.274368 -45.029507 0 0
-9.143177 14.543644 -44.1544 0 0
-9.123093 14.2946005 -44.160618 0 0
-9.002003 14.329145 -45.153076 0 0
-9.591232 15.8004265 -43.513557 0 0
-9.4864235 14.500773 -43.54601 0 0
-9.483941 14.521004 -44.34825 0 0
-9.247986 15.843297 -44.12195 0 0
-9.9319935 15.777786 -43.707405 0 0
-9.58875 15.820657 -44.315804 0 0
-9.827185 14.478133 -43.739857 0 0
-9.715173 14.253778 -44.437965 0 0
-10.007622 14.217252 -43.91961 0 0
-10.475819 14.17035 -43.553352 0 0
-10.376709 14.423084 -43.309982 0 0
-10.251856 14.17304 -42.93774 0 0
-9.466339 14.25173 -43.552227 0 0
-10.271939 14.422084 -42.93152 0 0
-10.944079 14.363238 -42.74561 0 0
-10.376748 15.721737 -42.89907 0 0
-10.481518 15.722737 -43.277534 0 0
-11.048888 15.662891 -42.71316 0 0
-11.048847 14.364239 -43.12407 0 0
-11.153656 15.663892 -43.091618 0 0
-11.048488 14.120213 -43.394955 0 0
-11.933876 14.286499 -42.86905 0 0
-11.913793 14.037456 -42.875267 0 0
-10.923996 14.114195 -42.751827 0 0
-12.541179 14.24615 -43.21452 0 0
-11.74128 14.3105545 -43.210426 0 0
-12.038685 15.586152 -42.8366 0 0
-12.45339 15.569859 -43.523445 0 0
-11.846087 15.610208 -43.177975 0 0
-12.348581 14.2702055 -43.555893 0 0
-12.155872 14.040095 -43.762875 0 0
-11.638444 14.074473 -43.46853 0 0
-13.155446 14.216314 -44.00358 0 0
-11.965528 12.547641 -43.881012 0 0
-12.306096 12.531099 -44.31849 0 0
-12.454075 12.532513 -44.85304 0 0
-12.681083 14.023831 -44.80785 0 0
-12.778304 14.249333 -44.107895 0 0
-12.965022 14.251117 -44.782383 0 0
-12.883113 15.548986 -44.075447 0 0
-13.260255 15.515967 -43.97113 0 0
-13.446971 15.517751 -44.645615 0 0
-13.342162 14.218098 -44.678062 0 0
-13.135363 13.967271 -44.009796 0 0
-13.069831 15.55077 -44.749935 0 0
-13.200988 14.003599 -45.67674 0 0
-13.322079 13.969054 -44.68428 0 0
-12.880307 14.275283 -45.47667 0 0
-13.221071 14.252643 -45.67052 0 0
-12.877825 14.295514 -46.278915 0 0
-13.32588 15.552296 -45.638073 0 0
-12.641872 15.617807 -46.052616 0 0
-12.985116 15.574936 -45.44422 0 0
-12.537064 14.318154 -46.085068 0 0
-12.608908 14.044422 -45.39939 0 0
-12.31646 14.080948 -45.917747 0 0
-12.092309 14.374203 -46.893402 0 0
-12.072226 14.125159 -46.89962 0 0
-11.987539 14.373202 -46.51494 0 0
-12.197118 15.673856 -46.86095 0 0
-11.42021 15.731702 -46.668404 0 0
-12.092348 15.672855 -46.48249 0 0
-11.4000845 14.184006 -47.08553 0 0
-12.114903 12.585642 -45.88546 0 0
-12.521095 13.997107 -43.220737 0 0
-9.9672365 12.71243 -44.026806 0 0
-9.927879 15.84979 -46.57795 0 0
-12.6459875 15.545803 -43.18207 0 0
-12.982634 15.595167 -46.246464 0 0
-12.857741 14.046471 -46.285133 0 0
-11.524977 15.732702 -47.04686 0 0
3 0 1 2
3 3 4 5
3 2 6 7
3 8 9 1
3 1 10 6
3 11 12 13
3 14 9 11
3 13 15 16
3 17 12 8
3 18 15 19
3 20 15 17
3 4 8 0
3 21 17 4
3 21 22 20
3 23 22 3
3 22 19 20
3 24 25 22
3 26 19 25
3 27 25 28
3 27 29 30
3 24 29 28
3 30 31 32
3 33 31 29
3 23 33 24
3 34 35 33
3 36 35 37
3 36 38 39
3 39 31 35
3 38 40 39
3 41 31 40
3 41 42 43
3 44 42 45
3 46 42 38
3 47 45 48
3 49 45 46
3 5 38 50
3 5 49 46
3 51 52 49
3 53 52 54
3 49 55 48
3 52 56 55
3 57 48 55
3 57 56 58
3 58 59 60
3 61 59 56
3 60 10 14
3 6 59 62
3 63 61 53
3 7 62 63
3 64 60 65
3 65 14 66
3 66 11 67
3 68 65 66
3 68 67 69
3 69 70 71
3 67 13 70
3 72 70 73
3 70 16 73
3 74 73 75
3 73 18 75
3 74 76 77
3 75 26 76
3 77 78 79
3 76 27 78
3 80 78 81
3 78 30 81
3 82 81 83
3 81 32 83
3 84 83 85
3 83 41 85
3 84 86 87
3 86 41 43
3 87 88 89
3 86 44 88
3 89 90 91
3 88 47 90
3 91 92 93
3 90 57 92
3 94 92 64
3 92 58 64
3 94 65 95
3 93 96 97
3 94 98 96
3 96 99 97
3 98 100 96
3 101 102 103
3 104 105 98
3 106 107 104
3 95 104 98
3 69 104 68
3 108 109 106
3 69 108 106
3 110 111 108
3 71 110 108
3 112 101 110
3 113 114 112
3 74 110 72
3 74 113 112
3 115 116 113
3 77 115 113
3 117 118 115
3 80 115 79
3 119 120 117
3 121 122 119
3 123 124 125
3 126 127 121
3 128 129 124
3 130 131 129
3 132 133 134
3 130 128 135
3 128 136 135
3 128 123 137
3 136 138 139
3 140 123 141
3 140 142 143
3 144 145 146
3 97 147 144
3 146 125 126
3 89 126 87
3 91 146 89
3 84 126 121
3 91 97 144
3 148 142 149
3 138 143 150
3 150 151 152
3 148 153 151
3 154 149 155
3 154 156 153
3 154 157 158
3 158 159 160
3 160 103 161
3 156 160 162
3 162 163 164
3 161 165 163
3 161 102 166
3 165 167 168
3 167 102 169
3 170 169 171
3 170 172 173
3 174 175 168
3 170 173 176
3 173 177 176
3 173 178 179
3 179 134 177
3 180 178 131
3 133 181 182
3 182 183 184
3 185 186 187
3 188 189 190
3 191 182 183
3 191 192 188
3 188 193 194
3 195 193 192
3 194 196 197
3 196 195 191
3 196 198 199
3 191 183 200
3 201 202 198
3 200 203 201
3 204 205 203
3 206 204 200
3 202 207 206
3 208 200 187
3 209 202 206
3 202 210 211
3 212 213 214
3 209 215 212
3 216 215 217
3 218 217 209
3 214 216 218
3 219 209 220
3 221 214 218
3 214 222 223
3 224 225 222
3 221 226 224
3 227 228 226
3 229 227 221
3 225 230 229
3 231 221 232
3 233 225 229
3 225 234 235
3 236 237 234
3 233 238 236
3 239 238 240
3 241 240 233
3 237 239 241
3 242 233 243
3 244 237 241
3 243 242 245
3 152 242 185
3 246 152 247
3 247 248 185
3 249 250 248
3 248 251 244
3 250 252 251
3 244 253 254
3 253 255 249
3 253 256 257
3 249 247 258
3 259 260 256
3 258 261 259
3 262 261 263
3 264 263 258
3 260 262 264
3 264 265 266
3 267 260 264
3 268 260 269
3 269 189 268
3 267 270 269
3 271 270 272
3 190 272 267
3 189 271 190
3 190 186 181
3 189 197 273
3 266 132 274
3 132 181 133
3 274 139 266
3 246 265 139
3 275 244 254
3 153 231 243
3 164 232 231
3 276 232 164
3 220 219 276
3 175 208 220
3 174 208 175
3 174 183 187
3 84 119 82
3 82 117 80
3 0 8 1
3 4 0 2
3 2 7 63
3 63 53 54
3 54 51 63
3 51 5 63
3 5 50 36
3 36 37 5
3 37 34 5
3 34 23 3
3 3 21 4
3 4 2 5
3 2 63 5
3 34 3 5
3 2 1 6
3 8 12 9
3 1 9 10
3 11 9 12
3 14 10 9
3 13 12 15
3 17 15 12
3 18 16 15
3 20 19 15
3 4 17 8
3 21 20 17
3 21 3 22
3 23 24 22
3 22 25 19
3 24 28 25
3 26 18 19
3 27 26 25
3 27 28 29
3 24 33 29
3 30 29 31
3 33 35 31
3 23 34 33
3 34 37 35
3 36 39 35
3 36 50 38
3 39 40 31
3 38 42 40
3 41 32 31
3 41 40 42
3 44 43 42
3 46 45 42
3 47 44 45
3 49 48 45
3 5 46 38
3 5 51 49
3 51 54 52
3 53 61 52
3 49 52 55
3 52 61 56
3 57 47 48
3 57 55 56
3 58 56 59
3 61 62 59
3 60 59 10
3 6 10 59
3 63 62 61
3 7 6 62
3 64 58 60
3 65 60 14
3 66 14 11
3 68 95 65
3 68 66 67
3 69 67 70
3 67 11 13
3 72 71 70
3 70 13 16
3 74 72 73
3 73 16 18
3 74 75 76
3 75 18 26
3 77 76 78
3 76 26 27
3 80 79 78
3 78 27 30
3 82 80 81
3 81 30 32
3 84 82 83
3 83 32 41
3 84 85 86
3 86 85 41
3 87 86 88
3 86 43 44
3 89 88 90
3 88 44 47
3 91 90 92
3 90 47 57
3 94 93 92
3 92 57 58
3 94 64 65
3 93 94 96
3 94 95 98
3 96 100 99
3 98 105 100
3 99 100 149
3 100 105 149
3 105 107 157
3 107 109 157
3 109 111 103
3 111 101 103
3 101 114 169
3 114 116 169
3 116 118 172
3 118 120 172
3 120 122 131
3 122 127 131
3 127 129 131
3 141 147 142
3 147 99 142
3 120 131 178
3 120 178 172
3 149 142 99
3 116 172 171
3 155 149 105
3 157 155 105
3 116 171 169
3 159 157 109
3 101 169 102
3 103 159 109
3 104 107 105
3 106 109 107
3 95 68 104
3 69 106 104
3 108 111 109
3 69 71 108
3 110 101 111
3 71 72 110
3 112 114 101
3 113 116 114
3 74 112 110
3 74 77 113
3 115 118 116
3 77 79 115
3 117 120 118
3 80 117 115
3 119 122 120
3 121 127 122
3 125 145 123
3 145 147 123
3 147 141 123
3 124 129 127
3 124 127 125
3 126 125 127
3 128 130 129
3 130 180 131
3 134 180 130
3 130 132 134
3 274 132 135
3 132 130 135
3 128 137 136
3 128 124 123
3 136 137 140
3 138 246 139
3 136 140 138
3 140 137 123
3 140 141 142
3 144 147 145
3 97 99 147
3 146 145 125
3 89 146 126
3 91 144 146
3 84 87 126
3 91 93 97
3 148 143 142
3 138 140 143
3 150 143 151
3 143 148 151
3 151 245 152
3 148 154 153
3 154 148 149
3 154 158 156
3 154 155 157
3 158 157 159
3 160 159 103
3 156 158 160
3 162 160 161
3 163 276 164
3 162 161 163
3 161 166 165
3 161 103 102
3 165 166 167
3 167 166 102
3 170 167 169
3 170 171 172
3 168 167 170
3 170 174 168
3 184 174 176
3 174 170 176
3 173 179 177
3 173 172 178
3 179 180 134
3 180 179 178
3 182 177 133
3 177 134 133
3 184 176 177
3 177 182 184
3 232 231 185
3 231 243 185
3 243 242 185
3 185 247 265
3 265 266 185
3 266 186 185
3 186 181 187
3 181 182 187
3 182 183 187
3 187 208 220
3 220 219 187
3 219 232 187
3 232 185 187
3 181 182 188
3 188 194 189
3 190 181 188
3 191 188 182
3 191 195 192
3 188 192 193
3 195 277 193
3 194 193 277
3 196 199 197
3 194 277 196
3 196 277 195
3 196 201 198
3 183 187 200
3 200 201 191
3 201 196 191
3 201 203 205
3 202 211 198
3 201 205 202
3 200 204 203
3 204 207 205
3 206 207 204
3 202 205 207
3 208 206 200
3 208 220 209
3 209 212 202
3 206 208 209
3 202 212 210
3 214 223 210
3 212 215 213
3 214 210 212
3 209 217 215
3 216 213 215
3 218 216 217
3 214 213 216
3 219 218 209
3 218 219 232
3 221 224 214
3 218 232 221
3 214 224 222
3 224 226 228
3 225 235 222
3 224 228 225
3 221 227 226
3 227 230 228
3 229 230 227
3 225 228 230
3 231 229 221
3 231 243 229
3 243 233 229
3 233 236 225
3 225 236 234
3 236 238 278
3 237 275 234
3 236 278 237
3 233 240 238
3 239 278 238
3 241 239 240
3 237 278 239
3 242 241 233
3 241 242 248
3 242 185 248
3 248 244 241
3 245 151 153
3 153 243 245
3 152 245 242
3 246 138 150
3 152 185 247
3 246 150 152
3 247 249 248
3 249 255 250
3 248 250 251
3 250 255 252
3 244 251 252
3 253 257 254
3 244 252 253
3 253 252 255
3 253 259 256
3 247 265 258
3 258 259 249
3 259 253 249
3 259 261 279
3 260 280 256
3 259 279 260
3 258 263 261
3 262 279 261
3 264 262 263
3 260 279 262
3 264 258 265
3 266 186 264
3 186 267 264
3 267 269 260
3 268 280 260
3 269 270 281
3 189 273 268
3 269 281 189
3 267 272 270
3 271 281 270
3 190 271 272
3 189 281 271
3 190 267 186
3 189 194 197
3 266 186 132
3 132 186 181
3 274 135 136
3 139 265 266
3 274 136 139
3 246 247 265
3 275 237 244
3 153 156 231
3 231 156 164
3 156 162 164
3 276 219 232
3 276 163 165
3 165 220 276
3 220 165 175
3 165 168 175
3 174 187 208
3 174 184 183
3 84 121 119
3 82 119 117
3 282 283 284
3 285 286 287
3 288 284 289
3 283 290 284
3 289 290 291
3 292 293 294
3 295 290 292
3 296 293 297
3 298 293 283
3 296 299 300
3 301 297 298
3 286 283 302
3 303 298 286
3 303 304 301
3 305 304 285
3 301 306 299
3 307 306 304
3 300 306 308
3 308 309 310
3 310 311 312
3 307 311 309
3 312 313 314
3 315 313 311
3 305 315 307
3 316 317 315
3 318 317 319
3 318 320 321
3 317 322 313
3 320 322 321
3 314 322 323
3 323 324 325
3 326 324 327
3 328 324 320
3 329 327 330
3 331 327 328
3 287 320 332
3 333 328 287
3 333 334 331
3 335 334 336
3 331 337 330
3 338 337 334
3 329 337 339
3 339 340 341
3 341 342 343
3 338 342 340
3 343 291 295
3 344 291 342
3 335 344 338
3 345 289 344
3 346 343 347
3 347 295 348
3 349 295 292
3 350 347 348
3 351 348 349
3 351 352 353
3 349 294 352
3 353 354 355
3 352 296 354
3 356 354 357
3 354 300 357
3 356 358 359
3 357 308 358
3 359 360 361
3 358 310 360
3 362 360 363
3 360 312 363
3 364 363 365
3 363 314 365
3 364 366 367
3 365 323 366
3 368 366 369
3 369 323 325
3 368 370 371
3 369 326 370
3 371 372 373
3 370 329 372
3 373 374 375
3 372 339 374
3 375 346 376
3 374 341 346
3 377 346 347
3 375 378 379
3 377 378 376
3 378 380 379
3 381 382 378
3 383 384 385
3 386 387 381
3 388 389 386
3 350 381 377
3 351 386 350
3 390 391 388
3 351 390 388
3 392 393 390
3 353 392 390
3 394 383 392
3 395 396 394
3 355 394 392
3 359 394 356
3 397 398 395
3 359 397 395
3 399 400 397
3 362 397 361
3 401 402 399
3 403 404 401
3 405 406 407
3 408 409 403
3 410 406 411
3 410 412 413
3 414 415 416
3 410 411 417
3 411 418 417
3 419 406 405
3 418 420 421
3 422 405 423
3 422 424 425
3 426 427 428
3 379 429 426
3 428 407 408
3 371 408 368
3 371 426 428
3 367 408 403
3 375 426 373
3 425 430 431
3 422 432 420
3 432 431 433
3 433 434 435
3 431 436 434
3 434 437 435
3 434 438 439
3 439 440 441
3 441 385 442
3 439 443 437
3 443 444 445
3 442 446 444
3 442 384 447
3 446 448 449
3 448 384 450
3 448 451 452
3 452 453 454
3 455 456 449
3 452 454 457
3 454 458 457
3 454 459 460
3 458 461 416
3 461 459 412
3 415 462 463
3 463 464 465
3 466 467 468
3 469 470 471
3 472 463 464
3 472 473 474
3 474 475 469
3 476 475 473
3 469 477 478
3 477 476 472
3 477 479 480
3 472 464 481
3 482 483 479
3 481 484 482
3 485 486 484
3 487 485 481
3 483 488 487
3 489 481 468
3 490 483 487
3 483 491 492
3 490 493 494
3 495 496 490
3 497 496 498
3 499 498 495
3 494 497 499
3 499 500 501
3 499 502 503
3 494 504 505
3 506 507 504
3 503 508 506
3 509 510 508
3 511 509 503
3 507 512 511
3 511 502 513
3 514 507 511
3 507 515 516
3 514 517 515
3 518 519 514
3 520 519 521
3 522 521 518
3 517 520 522
3 523 518 524
3 525 517 522
3 524 523 526
3 526 466 527
3 528 527 529
3 529 530 466
3 531 532 530
3 530 533 525
3 532 534 533
3 525 535 536
3 535 537 531
3 535 538 539
3 531 529 540
3 541 542 538
3 540 543 541
3 544 543 545
3 546 545 540
3 542 544 546
3 546 547 548
3 549 542 546
3 550 542 549
3 549 470 550
3 551 552 549
3 553 552 554
3 471 554 551
3 470 553 471
3 471 467 462
3 470 478 555
3 548 414 556
3 414 462 415
3 556 421 548
3 528 547 421
3 557 525 536
3 437 524 435
3 445 502 513
3 445 501 502
3 500 501 558
3 456 489 500
3 455 489 456
3 465 468 455
3 367 401 364
3 364 399 362
3 282 302 283
3 286 302 282
3 282 288 345
3 345 335 336
3 336 333 345
3 333 287 345
3 287 332 318
3 318 319 287
3 319 316 287
3 316 305 285
3 285 303 286
3 286 282 287
3 282 345 287
3 316 285 287
3 288 282 284
3 283 293 290
3 289 284 290
3 292 290 293
3 295 291 290
3 296 294 293
3 298 297 293
3 296 297 299
3 301 299 297
3 286 298 283
3 303 301 298
3 303 285 304
3 305 307 304
3 301 304 306
3 307 309 306
3 300 299 306
3 308 306 309
3 310 309 311
3 307 315 311
3 312 311 313
3 315 317 313
3 305 316 315
3 316 319 317
3 318 321 317
3 318 332 320
3 317 321 322
3 320 324 322
3 314 313 322
3 323 322 324
3 326 325 324
3 328 327 324
3 329 326 327
3 331 330 327
3 287 328 320
3 333 331 328
3 333 336 334
3 335 338 334
3 331 334 337
3 338 340 337
3 329 330 337
3 339 337 340
3 341 340 342
3 338 344 342
3 343 342 291
3 344 289 291
3 335 345 344
3 345 288 289
3 346 341 343
3 347 343 295
3 349 348 295
3 350 377 347
3 351 350 348
3 351 349 352
3 349 292 294
3 353 352 354
3 352 294 296
3 356 355 354
3 354 296 300
3 356 357 358
3 357 300 308
3 359 358 360
3 358 308 310
3 362 361 360
3 360 310 312
3 364 362 363
3 363 312 314
3 364 365 366
3 365 314 323
3 368 367 366
3 369 366 323
3 368 369 370
3 369 325 326
3 371 370 372
3 370 326 329
3 373 372 374
3 372 329 339
3 375 374 346
3 374 339 341
3 377 376 346
3 375 376 378
3 377 381 378
3 378 382 380
3 381 387 382
3 380 382 430
3 382 387 430
3 387 389 438
3 389 391 438
3 391 393 385
3 393 383 385
3 383 396 450
3 396 398 450
3 398 400 453
3 400 402 453
3 402 404 412
3 404 409 412
3 409 413 412
3 423 429 424
3 429 380 424
3 402 412 459
3 402 459 453
3 430 424 380
3 398 453 451
3 436 430 387
3 438 436 387
3 398 451 450
3 440 438 391
3 383 450 384
3 385 440 391
3 386 389 387
3 388 391 389
3 350 386 381
3 351 388 386
3 390 393 391
3 351 353 390
3 392 383 393
3 353 355 392
3 394 396 383
3 395 398 396
3 355 356 394
3 359 395 394
3 397 400 398
3 359 361 397
3 399 402 400
3 362 399 397
3 401 404 402
3 403 409 404
3 407 427 405
3 427 429 405
3 429 423 405
3 406 413 409
3 406 409 407
3 408 407 409
3 410 413 406
3 410 461 412
3 416 461 410
3 410 414 416
3 556 414 417
3 414 410 417
3 411 419 418
3 419 411 406
3 418 419 422
3 420 528 421
3 418 422 420
3 422 419 405
3 422 423 424
3 426 429 427
3 379 380 429
3 428 427 407
3 371 428 408
3 371 373 426
3 367 368 408
3 375 379 426
3 425 424 430
3 422 425 432
3 432 425 431
3 433 526 432
3 526 527 432
3 433 431 434
3 431 430 436
3 434 439 437
3 434 436 438
3 439 438 440
3 441 440 385
3 439 441 443
3 443 441 442
3 444 558 445
3 443 442 444
3 442 447 446
3 442 385 384
3 446 447 448
3 448 447 384
3 448 450 451
3 452 451 453
3 449 448 452
3 452 455 449
3 465 455 457
3 455 452 457
3 454 460 458
3 454 453 459
3 458 460 461
3 461 460 459
3 463 458 415
3 458 416 415
3 465 457 458
3 458 463 465
3 502 513 466
3 513 524 466
3 524 523 466
3 466 529 547
3 547 548 466
3 548 467 466
3 467 462 468
3 462 463 468
3 463 464 468
3 468 489 500
3 500 501 468
3 501 502 468
3 502 466 468
3 462 463 471
3 463 474 471
3 474 469 471
3 472 474 463
3 472 476 473
3 474 473 475
3 476 559 475
3 469 475 559
3 477 480 478
3 469 559 477
3 477 559 476
3 477 482 479
3 464 468 481
3 481 482 472
3 482 477 472
3 482 484 486
3 483 492 479
3 482 486 483
3 481 485 484
3 485 488 486
3 487 488 485
3 483 486 488
3 489 487 481
3 489 500 487
3 500 495 487
3 495 490 487
3 483 490 491
3 494 505 491
3 490 496 493
3 494 491 490
3 495 498 496
3 497 493 496
3 499 497 498
3 494 493 497
3 499 495 500
3 499 501 502
3 503 506 499
3 506 494 499
3 494 506 504
3 506 508 510
3 507 516 504
3 506 510 507
3 503 509 508
3 509 512 510
3 511 512 509
3 507 510 512
3 511 503 502
3 513 524 511
3 524 518 511
3 518 514 511
3 507 514 515
3 514 519 560
3 517 557 515
3 514 560 517
3 518 521 519
3 520 560 519
3 522 520 521
3 517 560 520
3 523 522 518
3 522 523 530
3 523 466 530
3 530 525 522
3 526 433 435
3 435 524 526
3 526 523 466
3 528 420 432
3 527 466 529
3 528 432 527
3 529 531 530
3 531 537 532
3 530 532 533
3 532 537 534
3 525 533 534
3 535 539 536
3 525 534 535
3 535 534 537
3 535 541 538
3 529 547 540
3 540 541 531
3 541 535 531
3 541 543 561
3 542 562 538
3 541 561 542
3 540 545 543
3 544 561 543
3 546 544 545
3 542 561 544
3 546 540 547
3 548 467 546
3 467 551 546
3 551 549 546
3 550 562 542
3 549 552 563
3 470 555 550
3 549 563 470
3 551 554 552
3 553 563 552
3 471 553 554
3 470 563 553
3 471 551 467
3 470 469 478
3 548 467 414
3 414 467 462
3 556 417 418
3 421 547 548
3 556 418 421
3 528 529 547
3 557 517 525
3 437 513 524
3 513 437 445
3 437 443 445
3 445 558 501
3 558 444 446
3 446 500 558
3 500 446 456
3 446 449 456
3 455 468 489
3 465 464 468
3 367 403 401
3 364 401 399
